PathFileType	4	(X/Y/Z)	./resultDataOpenSim/trcMotMarkerGrf/sub06/qtm-03-08.trc
DataRate	CameraRate	NumFrames	NumMarkers	Units	OrigDataRate	OrigDataStartFrame	OrigNumFrames
250.000000	250.000000	14	24	m	250.000000	321	512
Frame#	Time	L.Toe.Tip			R.Toe.Tip			L.Ankle.Lat			R.Ankle.Lat			L.Ankle.Med			R.Ankle.Med			L.Heel			R.Heel			L.Knee.Lat			R.Knee.Lat			L.Knee.Med			R.Knee.Med			L.Thigh.Upper			R.Thigh.Upper			L.ASIS			R.ASIS			V.Sacral			L.Acromium			R.Acromium			C7			L.Elbow			R.Elbow			L.Wrist.Lat			R.Wrist.Lat
		X1	Y1	Z1	X2	Y2	Z2	X3	Y3	Z3	X4	Y4	Z4	X5	Y5	Z5	X6	Y6	Z6	X7	Y7	Z7	X8	Y8	Z8	X9	Y9	Z9	X10	Y10	Z10	X11	Y11	Z11	X12	Y12	Z12	X13	Y13	Z13	X14	Y14	Z14	X15	Y15	Z15	X16	Y16	Z16	X17	Y17	Z17	X18	Y18	Z18	X19	Y19	Z19	X20	Y20	Z20	X21	Y21	Z21	X22	Y22	Z22	X23	Y23	Z23	X24	Y24	Z24

321	1.28	0.28095094	0.070036948	-0.036956325	0.88721203	0.03577974	0.13448344	0.29034937	0.19946808	-0.068834093	0.75166929	0.060439048	0.16072533	0.31113502	0.20481784	0.013329588	0.76894637	0.079905903	0.072978375	0.24703529	0.25874335	-0.019070185	0.69472024	0.03833686	0.10410818	0.63095602	0.36212863	-0.097100035	0.82259092	0.4407388	0.18618472	0.63381799	0.35115884	0.024329243	0.78408009	0.426934	0.064706646	0.60397394	0.75337505	-0.089695239	0.66732899	0.78379583	0.24960476	0.69317579	0.80785323	-0.055211635	0.73744558	0.83182508	0.17616742	0.52657778	0.8917885	0.093082171	0.63323772	1.3100934	-0.095713921	0.64686734	1.274533	0.26604844	0.56410155	1.3315158	0.090743109	0.61692201	0.9874219	-0.15982622	0.56775809	0.96614141	0.32385016	0.79544773	0.816327	-0.16543215	0.71706749	0.77809862	0.37295243
322	1.284	0.29421399	0.073414653	-0.037185778	0.88709659	0.035785923	0.13470563	0.30311203	0.20291505	-0.068687986	0.75150347	0.060376017	0.16091634	0.32398708	0.2081716	0.013398291	0.76895871	0.080058023	0.073195438	0.25962654	0.26204158	-0.019022629	0.6946611	0.038408307	0.10418908	0.64376443	0.36464404	-0.097153469	0.82403619	0.44058073	0.18717144	0.64745604	0.35361476	0.024005816	0.78575365	0.42740983	0.065523851	0.61025917	0.75585721	-0.089358259	0.67154842	0.7850734	0.25005844	0.69894361	0.81030314	-0.055201222	0.7428306	0.83356633	0.17724829	0.53242775	0.89401262	0.093606957	0.63856325	1.3124139	-0.095515582	0.65268082	1.2769641	0.26619118	0.56982972	1.3337056	0.090966042	0.62097437	0.99002854	-0.15927487	0.57556736	0.96794248	0.32442699	0.79767716	0.81714577	-0.16624437	0.72779869	0.78178645	0.37216762
323	1.288	0.30763815	0.07659583	-0.037433009	0.88698488	0.035796335	0.13490963	0.31596971	0.20617575	-0.068543388	0.75132424	0.060342681	0.16110081	0.33692906	0.21132289	0.013468431	0.76895372	0.080231331	0.073427194	0.27232363	0.26508654	-0.018946512	0.69460065	0.038482584	0.10426557	0.65652328	0.36730685	-0.097169881	0.8253567	0.44042142	0.18802849	0.66085137	0.35611755	0.023800198	0.78743733	0.4279107	0.066224339	0.61669361	0.75839509	-0.088861111	0.67568731	0.78639946	0.25043901	0.70469452	0.81278304	-0.055217908	0.74818403	0.8353635	0.17834483	0.5381464	0.89624905	0.094166726	0.64390466	1.3147643	-0.095313802	0.65850675	1.2794392	0.26631421	0.57553334	1.3359162	0.091174597	0.62504143	0.99267936	-0.15883868	0.58331713	0.96982518	0.32497372	0.79982389	0.81806606	-0.16708021	0.73844818	0.78558307	0.37131757
324	1.292	0.32124503	0.07957533	-0.037711762	0.88687454	0.035813747	0.13509106	0.32891268	0.20924422	-0.068413612	0.75113993	0.060333054	0.16127035	0.34995148	0.21427694	0.013531441	0.76891139	0.080437259	0.073685594	0.28507133	0.26786517	-0.018746046	0.69453812	0.038558509	0.10432769	0.66925628	0.37010909	-0.097175857	0.82653635	0.44028958	0.18875976	0.67376103	0.35870577	0.023804112	0.78913091	0.42840223	0.06681131	0.62327414	0.76096091	-0.088315262	0.67983224	0.7877683	0.25078155	0.71044001	0.81528841	-0.055252928	0.75350321	0.83721037	0.1794359	0.54387411	0.8984727	0.09462942	0.64926434	1.317134	-0.095108644	0.66435153	1.2819557	0.26641865	0.58124257	1.3381225	0.091354767	0.62928287	0.99538102	-0.15861997	0.5910202	0.97178667	0.32549949	0.80189505	0.81906604	-0.16793421	0.74904481	0.78950269	0.37042634
325	1.296	0.33505711	0.082350392	-0.038038669	0.88676349	0.035837706	0.13524578	0.34191849	0.21212266	-0.068295524	0.7509589	0.060335998	0.16141928	0.36304549	0.21704631	0.01358219	0.76883544	0.080664623	0.073950518	0.29778175	0.27039172	-0.018353993	0.6944722	0.038636222	0.10437435	0.68194547	0.37302136	-0.097152348	0.82761636	0.44019922	0.18941841	0.68634823	0.36138381	0.023961286	0.7907195	0.42886963	0.067338492	0.62995695	0.76354774	-0.087911377	0.68416492	0.78920468	0.25112333	0.7161917	0.8178147	-0.055297445	0.75879504	0.8391006	0.1805021	0.54969208	0.90066634	0.094921215	0.6546416	1.3195129	-0.094901033	0.67021294	1.2845084	0.26650284	0.58701147	1.3402805	0.091468604	0.63377158	0.99813532	-0.15867061	0.59868234	0.97381885	0.32600881	0.80391794	0.82013903	-0.1687835	0.75959929	0.79354787	0.36950778
326	1.3	0.3490941	0.084920269	-0.038435961	0.88665217	0.035864754	0.13537399	0.35496151	0.21481462	-0.068177985	0.75078774	0.060341949	0.16154692	0.37620101	0.21963765	0.013619566	0.76874744	0.080892068	0.074191751	0.31041179	0.27268454	-0.017826391	0.69440269	0.038715717	0.1044098	0.6945618	0.37602253	-0.09707089	0.82862414	0.44016271	0.1900211	0.69883332	0.36414747	0.02419213	0.7920847	0.42931449	0.067870054	0.63671978	0.76616717	-0.087735179	0.68891617	0.79075927	0.25148408	0.72196142	0.82035736	-0.0553425	0.76407898	0.84103116	0.18153973	0.55560437	0.90282089	0.095064508	0.66003751	1.3218927	-0.094692127	0.67608922	1.2870899	0.26656578	0.59287219	1.3423636	0.091488233	0.63831377	1.0009193	-0.15886736	0.60629962	0.97590493	0.32650429	0.8059296	0.82128699	-0.16960403	0.77010182	0.79770456	0.36856074
327	1.304	0.3633756	0.087291001	-0.038911582	0.88654275	0.035892111	0.13548049	0.368018	0.21732382	-0.068050447	0.75062085	0.060350252	0.16166142	0.38940828	0.22205312	0.013644725	0.76866781	0.081104177	0.074392071	0.32298533	0.27474098	-0.017297243	0.69432808	0.038796367	0.10444219	0.70712003	0.37912515	-0.096950455	0.82955333	0.44019621	0.19054755	0.71131659	0.36699681	0.024457864	0.79318486	0.42973975	0.06842631	0.64353413	0.76882117	-0.087696804	0.69414295	0.79244445	0.2518673	0.72776105	0.82291174	-0.05537907	0.76937492	0.84299865	0.18255641	0.56158003	0.90493155	0.095123908	0.66545264	1.324267	-0.094481921	0.68198502	1.2896909	0.26661122	0.59877462	1.3444084	0.091458375	0.64258276	1.0037013	-0.15898425	0.61386593	0.97802904	0.32698512	0.80794881	0.82250531	-0.17039004	0.78053878	0.80194809	0.36757844
328	1.308	0.37791616	0.089478137	-0.039450388	0.88643585	0.035920087	0.1355706	0.38107377	0.21966101	-0.067914283	0.7504342	0.060369524	0.16177942	0.40266197	0.22429211	0.013656937	0.76860602	0.081293755	0.07454719	0.33553587	0.27654481	-0.016852007	0.69424374	0.038877606	0.10448527	0.71962875	0.38234889	-0.096818397	0.83039673	0.44030037	0.19099443	0.72380682	0.36993543	0.024751962	0.79398215	0.43014281	0.068989178	0.65033078	0.77149675	-0.087632323	0.69947055	0.79416154	0.25227382	0.73360226	0.82547312	-0.05539817	0.7746882	0.84499426	0.18355484	0.56756749	0.90699858	0.095153722	0.67088546	1.3266296	-0.094269144	0.68790214	1.2923019	0.26664438	0.60461944	1.3464883	0.091475592	0.64646299	1.0064679	-0.15891824	0.62138477	0.98018337	0.32745078	0.80996153	0.82378603	-0.17115483	0.79089929	0.8062506	0.36655615
329	1.312	0.39271974	0.091501362	-0.040036565	0.88633057	0.035950164	0.1356477	0.39412941	0.2218372	-0.067787067	0.75020868	0.060407618	0.16191349	0.41595801	0.22634944	0.013661356	0.76856137	0.081459655	0.074660935	0.34806176	0.278086	-0.016482719	0.69414175	0.038960754	0.10456053	0.73203846	0.38568865	-0.096652952	0.83117187	0.44044776	0.19137846	0.73627317	0.37296969	0.02508116	0.79448871	0.43051627	0.069515119	0.65704852	0.77418053	-0.087444282	0.70432468	0.79575333	0.25270424	0.73949638	0.82803686	-0.055390923	0.78001175	0.84700341	0.18452638	0.57351835	0.90902436	0.095181613	0.67633262	1.3289719	-0.094052854	0.69383368	1.2949149	0.26666692	0.61036417	1.3486308	0.091587639	0.65008604	1.00922	-0.15873078	0.62887646	0.98236575	0.32790845	0.81194403	0.82512152	-0.17191213	0.8011769	0.8105928	0.36549145
330	1.316	0.40777928	0.093376131	-0.040667505	0.88622805	0.035981084	0.13571376	0.40719639	0.22384736	-0.067676421	0.74996923	0.060456756	0.16205438	0.42928313	0.22822547	0.013687765	0.76852297	0.081611095	0.074752251	0.3605481	0.27936217	-0.016131541	0.69401729	0.039049506	0.10468237	0.74431438	0.38912069	-0.096417374	0.83190999	0.44060118	0.19170857	0.74868189	0.37610356	0.02545443	0.79486519	0.43085072	0.069947856	0.66369453	0.77685729	-0.087182707	0.70862548	0.7971841	0.25314486	0.74545449	0.83059849	-0.055348561	0.78534051	0.84901165	0.1854584	0.57941274	0.91100873	0.09521298	0.68178928	1.3312819	-0.093833538	0.69977319	1.2975236	0.26667912	0.61604434	1.3508016	0.09176582	0.65361	1.0119557	-0.15850966	0.63637026	0.9845742	0.32836928	0.813882	0.82649983	-0.17266595	0.81137304	0.81496821	0.364383
331	1.32	0.42307836	0.09511006	-0.041341781	0.88613089	0.036008373	0.13577033	0.42029101	0.22566823	-0.067559651	0.74977051	0.060493907	0.16217861	0.44261946	0.22992815	0.013777579	0.76847554	0.081764051	0.074849508	0.37299947	0.28037077	-0.015746109	0.69388001	0.039146868	0.10483239	0.75649194	0.39262138	-0.096109288	0.83262873	0.44074184	0.19198301	0.76100002	0.37933341	0.025885276	0.79527716	0.43113963	0.070270399	0.67033168	0.77950389	-0.087025961	0.71286941	0.79856371	0.25355811	0.75148753	0.8331536	-0.055262456	0.79067665	0.85100912	0.18634401	0.58524918	0.91295494	0.095244804	0.68725159	1.3335468	-0.093613001	0.70571956	1.3001215	0.26668409	0.62170804	1.3529578	0.091963516	0.65710892	1.0146695	-0.1582935	0.64387615	0.98680055	0.32883539	0.81576946	0.82790478	-0.17341592	0.82149497	0.81937479	0.36323337
332	1.324	0.43859331	0.09670466	-0.042048636	0.88604012	0.036028866	0.13581933	0.4334323	0.22727324	-0.067408079	0.749637	0.060498412	0.16227611	0.45596412	0.2314555	0.013938797	0.76841201	0.081927359	0.074968897	0.38543493	0.2811035	-0.015304512	0.69374875	0.039250889	0.1049732	0.76861721	0.39617303	-0.095747176	0.8333324	0.44087266	0.1922041	0.77316549	0.38265443	0.026399312	0.79574604	0.43138545	0.070524696	0.6770382	0.782105	-0.087130947	0.71744615	0.79997258	0.25390669	0.75760692	0.83569747	-0.055124159	0.79602202	0.85298484	0.18718379	0.59102465	0.91487334	0.095273334	0.69271998	1.3357619	-0.093393536	0.71166967	1.3026999	0.26668537	0.62737527	1.3550793	0.09215604	0.66059313	1.0173585	-0.15808593	0.65136687	0.98902625	0.32929782	0.8176178	0.82932001	-0.17416059	0.83154986	0.8238062	0.36205038
333	1.328	0.45429201	0.098157153	-0.042765799	0.88595588	0.036044117	0.1358636	0.44664305	0.22865106	-0.067219122	0.74955097	0.060465273	0.16235468	0.46933513	0.23278616	0.014141511	0.76833576	0.082098988	0.075108014	0.39787193	0.2815495	-0.014815274	0.69363442	0.039355488	0.10508909	0.78069652	0.39976083	-0.095339042	0.83402753	0.44100143	0.19238456	0.78507582	0.38607344	0.027027788	0.79620279	0.43160196	0.070768476	0.68390933	0.78467199	-0.087452245	0.72234999	0.80139627	0.25417873	0.76382593	0.83822447	-0.054925255	0.80137415	0.85492109	0.18798109	0.59673862	0.91677017	0.095292507	0.69819649	1.3379314	-0.093176685	0.71761692	1.3052494	0.26668453	0.63304345	1.3571611	0.092340001	0.66405422	1.0200189	-0.15788069	0.65880351	0.99123068	0.32974887	0.81946556	0.83073602	-0.17489177	0.84154273	0.82825105	0.36084258
334	1.332	0.47013112	0.099458223	-0.04346008	0.88587808	0.036058308	0.13590695	0.45994495	0.22981051	-0.067017104	0.74949232	0.060409406	0.16242364	0.48275668	0.23388432	0.014366255	0.76825289	0.082274288	0.075256844	0.41032467	0.28170511	-0.014300757	0.69353832	0.039457933	0.10518658	0.79271634	0.40337381	-0.094878563	0.83472131	0.44112966	0.1925395	0.79665966	0.38960406	0.027779686	0.79660153	0.43180293	0.071035293	0.69102182	0.78722982	-0.087762981	0.72748473	0.80281209	0.25436476	0.77016076	0.8407278	-0.054656713	0.80673138	0.85680007	0.18873975	0.60240902	0.91863941	0.095295534	0.70367862	1.3400579	-0.092963044	0.72355914	1.3077615	0.26668399	0.63870706	1.3592	0.092521183	0.66749362	1.0226395	-0.15767443	0.66617421	0.9934043	0.33019081	0.82135826	0.83215596	-0.17559351	0.8514752	0.83269664	0.35961268
